<?xml version="1.0" encoding="utf-8"?><!-- Uploaded to: SVG Repo, www.svgrepo.com, Generator: SVG Repo Mixer Tools -->
<svg width="800px" height="800px" viewBox="0 0 24 24" fill="none" xmlns="http://www.w3.org/2000/svg">
<path d="M3.83327 15.2485L4.56432 15.0809L3.83327 15.2485ZM3.83327 9.35323L4.56432 9.52078L3.83327 9.35323ZM20.1667 9.35323L19.4357 9.52079L20.1667 9.35323ZM20.1667 15.2485L19.4357 15.0809L20.1667 15.2485ZM14.8801 20.6589L15.0552 21.3882L14.8801 20.6589ZM9.11986 20.6589L9.29493 19.9296L9.11986 20.6589ZM9.11985 3.94279L9.29493 4.67207L9.11985 3.94279ZM14.8801 3.94279L15.0552 3.21351L14.8801 3.94279ZM8.82008 3C8.82008 2.58579 8.48429 2.25 8.07008 2.25C7.65587 2.25 7.32008 2.58579 7.32008 3H8.82008ZM7.32008 5.51375C7.32008 5.92796 7.65587 6.26375 8.07008 6.26375C8.48429 6.26375 8.82008 5.92796 8.82008 5.51375H7.32008ZM16.6799 3C16.6799 2.58579 16.3441 2.25 15.9299 2.25C15.5157 2.25 15.1799 2.58579 15.1799 3H16.6799ZM15.1799 5.51375C15.1799 5.92796 15.5157 6.26375 15.9299 6.26375C16.3441 6.26375 16.6799 5.92796 16.6799 5.51375H15.1799ZM4.56432 15.0809C4.14523 13.2524 4.14523 11.3493 4.56432 9.52078L3.10223 9.18568C2.63259 11.2347 2.63259 13.367 3.10223 15.416L4.56432 15.0809ZM19.4357 9.52079C19.8548 11.3493 19.8548 13.2524 19.4357 15.0809L20.8978 15.416C21.3674 13.367 21.3674 11.2347 20.8978 9.18568L19.4357 9.52079ZM14.7051 19.9296C12.9258 20.3568 11.0742 20.3568 9.29493 19.9296L8.94478 21.3882C10.9543 21.8706 13.0458 21.8706 15.0552 21.3882L14.7051 19.9296ZM9.29493 4.67207C11.0742 4.24493 12.9258 4.24493 14.7051 4.67207L15.0552 3.21351C13.0458 2.73111 10.9542 2.73111 8.94478 3.21351L9.29493 4.67207ZM9.29493 19.9296C6.95607 19.3682 5.11769 17.4953 4.56432 15.0809L3.10223 15.416C3.77946 18.3708 6.03739 20.6902 8.94478 21.3882L9.29493 19.9296ZM15.0552 21.3882C17.9626 20.6902 20.2205 18.3708 20.8978 15.416L19.4357 15.0809C18.8823 17.4953 17.0439 19.3682 14.7051 19.9296L15.0552 21.3882ZM14.7051 4.67207C17.0439 5.23355 18.8823 7.10642 19.4357 9.52079L20.8978 9.18568C20.2205 6.23089 17.9626 3.91147 15.0552 3.21351L14.7051 4.67207ZM8.94478 3.21351C6.03739 3.91147 3.77946 6.23089 3.10223 9.18568L4.56432 9.52078C5.11769 7.10641 6.95607 5.23355 9.29493 4.67207L8.94478 3.21351ZM7.32008 3V5.51375H8.82008V3H7.32008ZM15.1799 3V5.51375H16.6799V3H15.1799Z" fill="#0095FF"/>
<path d="M3.83327 15.2485L3.10223 15.416L3.83327 15.2485ZM3.83327 9.3532L3.10223 9.18565L3.83327 9.3532ZM19.4357 9.52076C19.5282 9.9245 19.9305 10.1768 20.3343 10.0842C20.738 9.99171 20.9903 9.5894 20.8978 9.18565L19.4357 9.52076ZM15.0552 21.3882C15.458 21.2915 15.7061 20.8866 15.6094 20.4838C15.5127 20.0811 15.1078 19.8329 14.7051 19.9296L15.0552 21.3882ZM9.11986 20.6589L8.94478 21.3882L9.11986 20.6589ZM9.11985 3.94277L8.94478 3.21349L9.11985 3.94277ZM14.8801 3.94276L15.0552 3.21348L14.8801 3.94276ZM4.56432 15.0809C4.14523 13.2524 4.14523 11.3493 4.56432 9.52076L3.10223 9.18565C2.63259 11.2347 2.63259 13.367 3.10223 15.416L4.56432 15.0809ZM14.7051 19.9296C12.9258 20.3568 11.0742 20.3568 9.29493 19.9296L8.94478 21.3882C10.9543 21.8706 13.0458 21.8706 15.0552 21.3882L14.7051 19.9296ZM9.29493 4.67205C11.0742 4.2449 12.9258 4.2449 14.7051 4.67204L15.0552 3.21348C13.0458 2.73108 10.9542 2.73108 8.94478 3.21349L9.29493 4.67205ZM9.29493 19.9296C6.95607 19.3681 5.11769 17.4953 4.56432 15.0809L3.10223 15.416C3.77946 18.3708 6.03739 20.6902 8.94478 21.3882L9.29493 19.9296ZM14.7051 4.67204C17.0439 5.23352 18.8823 7.10639 19.4357 9.52076L20.8978 9.18565C20.2205 6.23086 17.9626 3.91144 15.0552 3.21348L14.7051 4.67204ZM8.94478 3.21349C6.03739 3.91144 3.77946 6.23086 3.10223 9.18565L4.56432 9.52076C5.11769 7.10638 6.95607 5.23352 9.29493 4.67205L8.94478 3.21349Z" fill="#363853"/>
<path d="M14 13H10M12 15L12 11" stroke="#0095FF" stroke-width="1.5" stroke-linecap="round"/>
<path d="M8.82007 3C8.82007 2.58579 8.48428 2.25 8.07007 2.25C7.65585 2.25 7.32007 2.58579 7.32007 3H8.82007ZM7.32007 5.51375C7.32007 5.92796 7.65585 6.26375 8.07007 6.26375C8.48428 6.26375 8.82007 5.92796 8.82007 5.51375H7.32007ZM16.6799 3C16.6799 2.58579 16.3441 2.25 15.9299 2.25C15.5157 2.25 15.1799 2.58579 15.1799 3H16.6799ZM15.1799 5.51375C15.1799 5.92796 15.5157 6.26375 15.9299 6.26375C16.3441 6.26375 16.6799 5.92796 16.6799 5.51375H15.1799ZM7.32007 3V5.51375H8.82007V3H7.32007ZM15.1799 3V5.51375H16.6799V3H15.1799Z" fill="#0095FF"/>
</svg>